<svg width="60" height="60" viewBox="0 0 60 60" fill="none" xmlns="http://www.w3.org/2000/svg">
<g id="ph:handshake-fill">
<g id="Vector">
<path fill-rule="evenodd" clip-rule="evenodd" d="M58.4474 29.7434C58.7692 29.3713 59.0141 28.9391 59.168 28.4718C59.324 28.0047 59.3859 27.5113 59.3501 27.0201C59.3143 26.5289 59.1815 26.0497 58.9594 25.6101L53.1352 13.964C52.6906 13.0746 51.911 12.3983 50.9678 12.0836C50.0246 11.7689 48.995 11.8416 48.1055 12.2859L42.9352 14.864L30.5133 11.3156C30.1763 11.2192 29.819 11.2192 29.482 11.3156L17.0602 14.864L11.8898 12.2859C11.0003 11.8416 9.97074 11.7689 9.02755 12.0836C8.08436 12.3983 7.30475 13.0746 6.86016 13.964L1.03594 25.6101C0.591698 26.4997 0.518921 27.5292 0.833611 28.4724C1.1483 29.4156 1.8247 30.1952 2.71406 30.6398L8.40469 33.4851L21.4172 42.7757C21.6088 42.9121 21.8242 43.0114 22.0523 43.0687L37.0523 46.8187C37.3665 46.8975 37.6957 46.8936 38.0078 46.8073C38.32 46.721 38.6045 46.5554 38.8336 46.3265L48.2086 36.9515L51.743 33.4148L57.293 30.6398C57.7332 30.4202 58.1256 30.1155 58.4474 29.7434ZM37.568 30.5789L44.0625 35.7796L36.9258 42.9234L23.2992 39.5179L11.768 31.2796L18.1828 18.4523L30 15.075L32.25 15.7171L21.7359 25.9148C21.7291 25.9204 21.7228 25.9267 21.7172 25.9335C21.3197 26.3306 21.0166 26.8118 20.8301 27.3417C20.6436 27.8717 20.5785 28.4367 20.6397 28.9952C20.7009 29.5536 20.8868 30.0911 21.1836 30.5681C21.4805 31.0451 21.8807 31.4492 22.3547 31.7507C27.1734 34.8234 32.9883 34.3289 37.568 30.5789ZM41.9672 18.75L48.3375 31.5046L46.7367 33.1242L38.6719 26.6625C38.3106 26.3731 37.855 26.2276 37.3929 26.254C36.9308 26.2804 36.4948 26.4768 36.1688 26.8054C31.9945 31.0125 27.3422 30.4898 24.375 28.5937L34.5094 18.75H41.9672Z" fill="#2E0493"/>
<path d="M28.0688 51.0796C27.9674 51.4853 27.7333 51.8454 27.4038 52.1027C27.0742 52.3601 26.6681 52.4999 26.25 52.5C26.092 52.5007 25.9346 52.4818 25.7813 52.4437L18.2813 50.5687C18.0725 50.5163 17.8742 50.4283 17.6953 50.3085L12.0703 46.5585C11.6566 46.2826 11.3695 45.8535 11.2722 45.3659C11.1748 44.8782 11.2752 44.3718 11.5512 43.9582C11.8272 43.5445 12.2562 43.2574 12.7439 43.16C13.2315 43.0627 13.7379 43.163 14.1516 43.439L19.5047 47.0085L26.6906 48.8062C26.9307 48.8644 27.1569 48.9695 27.3563 49.1154C27.5556 49.2613 27.7242 49.4452 27.8523 49.6565C27.9803 49.8677 28.0654 50.1022 28.1025 50.3464C28.1397 50.5907 28.1282 50.8399 28.0688 51.0796Z" fill="#FBE94E"/>
</g>
</g>
</svg>
