<svg width="60" height="60" viewBox="0 0 60 60" fill="none" xmlns="http://www.w3.org/2000/svg">
<path fill-rule="evenodd" clip-rule="evenodd" d="M46.0486 27.6657C48.4246 27.6657 50.5696 28.3257 52.4836 29.6457C54.4196 30.9437 55.9486 32.6377 57.0706 34.7277C58.2146 36.7957 58.7866 38.9957 58.7866 41.3277C58.7866 43.6377 58.2256 45.8047 57.1036 47.8287C56.0036 49.8527 54.4856 51.5027 52.5496 52.7787C50.6356 54.0327 48.4686 54.6597 46.0486 54.6597C43.6286 54.6597 41.4506 54.0327 39.5146 52.7787C37.5786 51.5027 36.0496 49.8527 34.9276 47.8287C33.8056 45.8047 33.2446 43.6377 33.2446 41.3277C33.2446 38.9957 33.8166 36.7957 34.9606 34.7277C36.1046 32.6377 37.6446 30.9437 39.5806 29.6457C41.5166 28.3257 43.6726 27.6657 46.0486 27.6657ZM48.0616 47.5317C47.5776 48.0597 46.8846 48.3237 45.9826 48.3237C45.1026 48.3237 44.4206 48.0597 43.9366 47.5317C43.4526 47.0037 43.1116 46.2337 42.9136 45.2217C42.7156 44.1877 42.6166 42.9117 42.6166 41.3937C42.6166 39.7877 42.7156 38.4347 42.9136 37.3347C43.1336 36.2127 43.4856 35.3657 43.9696 34.7937C44.4536 34.2217 45.1246 33.9357 45.9826 33.9357C46.8406 33.9357 47.5226 34.2217 48.0286 34.7937C48.5346 35.3437 48.8866 36.1797 49.0846 37.3017C49.3046 38.4017 49.4146 39.7657 49.4146 41.3937C49.4146 42.9117 49.3156 44.1877 49.1176 45.2217C48.9196 46.2337 48.5676 47.0037 48.0616 47.5317Z" fill="#2E0493"/>
<path fill-rule="evenodd" clip-rule="evenodd" d="M13.4446 5.55566C15.7986 5.55566 17.9326 6.20466 19.8466 7.50266C21.7606 8.80066 23.2786 10.4947 24.4006 12.5847C25.5446 14.6527 26.1166 16.8637 26.1166 19.2177C26.1166 21.5277 25.5556 23.6947 24.4336 25.7187C23.3336 27.7207 21.8266 29.3487 19.9126 30.6027C17.9986 31.8567 15.8426 32.4837 13.4446 32.4837C11.0246 32.4837 8.84663 31.8567 6.91063 30.6027C4.97463 29.3487 3.44563 27.7207 2.32363 25.7187C1.20163 23.6947 0.640625 21.5277 0.640625 19.2177C0.640625 16.8637 1.21263 14.6527 2.35662 12.5847C3.50063 10.4947 5.04063 8.80066 6.97663 7.50266C8.91263 6.20466 11.0686 5.55566 13.4446 5.55566ZM16.1176 24.4647C15.6556 25.6307 14.7426 26.2137 13.3786 26.2137C12.0586 26.2137 11.1566 25.6307 10.6726 24.4647C10.1886 23.2767 9.94663 21.5277 9.94663 19.2177C9.94663 17.6117 10.0566 16.2587 10.2766 15.1587C10.4966 14.0367 10.8486 13.1897 11.3326 12.6177C11.8386 12.0457 12.5206 11.7597 13.3786 11.7597C14.6766 11.7597 15.5676 12.3977 16.0516 13.6737C16.5576 14.9277 16.8106 16.7757 16.8106 19.2177C16.8106 21.5277 16.5796 23.2767 16.1176 24.4647Z" fill="#2E0493"/>
<path d="M48.8206 5.75367L16.7446 54.2637L9.64962 54.1317L41.7916 5.75367H48.8206Z" fill="#FBE94E"/>
</svg>
