<svg width="60" height="60" viewBox="0 0 60 60" fill="none" xmlns="http://www.w3.org/2000/svg">
<path fill-rule="evenodd" clip-rule="evenodd" d="M52.5 25.5H47.5V20.5H52.5V25.5ZM37.5 20.5H42.5V25.5H37.5V20.5ZM27.5 20.5H32.5V25.5H27.5V20.5Z" fill="#FBE94E"/>
<path d="M50 36.75C46.875 36.75 43.875 36.25 41.075 35.325C40.2 35.05 39.225 35.25 38.525 35.95L33.025 41.45C25.9333 37.8332 20.1668 32.0667 16.55 24.975L22.05 19.475C22.75 18.775 22.95 17.8 22.675 16.925C21.7266 14.0451 21.2455 11.032 21.25 8C21.25 7.33696 20.9866 6.70107 20.5178 6.23223C20.0489 5.76339 19.413 5.5 18.75 5.5H10C9.33696 5.5 8.70107 5.76339 8.23223 6.23223C7.76339 6.70107 7.5 7.33696 7.5 8C7.5 19.2717 11.9777 30.0817 19.948 38.052C27.9183 46.0223 38.7283 50.5 50 50.5C50.663 50.5 51.2989 50.2366 51.7678 49.7678C52.2366 49.2989 52.5 48.663 52.5 48V39.25C52.5 38.587 52.2366 37.9511 51.7678 37.4822C51.2989 37.0134 50.663 36.75 50 36.75Z" fill="#2E0493"/>
</svg>
