<?xml version="1.0" encoding="utf-8"?><svg width="44" height="44" fill="none" xmlns="http://www.w3.org/2000/svg" viewBox="0 0 44 44"><path d="M36.685 27.697c-2.255 0-4.437-.367-6.472-1.027a1.791 1.791 0 00-1.851.44l-2.879 3.612c-5.188-2.475-10.046-7.15-12.631-12.522l3.575-3.043a1.871 1.871 0 00.44-1.87 20.445 20.445 0 01-1.027-6.472c0-.99-.825-1.815-1.815-1.815H7.682C6.692 5 5.5 5.44 5.5 6.815 5.5 23.847 19.672 38 36.685 38c1.302 0 1.815-1.155 1.815-2.163v-6.325c0-.99-.825-1.815-1.815-1.815z" fill="#13023E"/></svg>