<?xml version="1.0" encoding="utf-8"?><svg viewBox="0 0 44 44" xmlns="http://www.w3.org/2000/svg" xmlns:xlink="http://www.w3.org/1999/xlink"><style>:root>svg{display:none}:root>svg:target{display:block}</style><svg fill="none" viewBox="0 0 24 36" id="next" xmlns="http://www.w3.org/2000/svg"><g clip-path="url(#aclip0_283_953)"><path d="M5.765 29.28l12.06-12-12.06-12" stroke="#13023E" stroke-width="2" stroke-linecap="round" stroke-linejoin="round"/></g><defs><clipPath id="aclip0_283_953"><path fill="#fff" transform="rotate(90 12 12)" d="M0 0h36v24H0z"/></clipPath></defs></svg><svg fill="none" viewBox="0 0 44 44" id="phone" xmlns="http://www.w3.org/2000/svg"><path d="M36.685 27.697c-2.255 0-4.437-.367-6.472-1.027a1.791 1.791 0 00-1.851.44l-2.879 3.612c-5.188-2.475-10.046-7.15-12.631-12.522l3.575-3.043a1.871 1.871 0 00.44-1.87 20.445 20.445 0 01-1.027-6.472c0-.99-.825-1.815-1.815-1.815H7.682C6.692 5 5.5 5.44 5.5 6.815 5.5 23.847 19.672 38 36.685 38c1.302 0 1.815-1.155 1.815-2.163v-6.325c0-.99-.825-1.815-1.815-1.815z" fill="#13023E"/></svg><svg fill="none" viewBox="0 0 24 36" id="prev" xmlns="http://www.w3.org/2000/svg"><g clip-path="url(#cclip0_283_951)"><path d="M18.235 28.706L6.175 16.942l12.06-11.765" stroke="#13023E" stroke-width="2" stroke-linecap="round" stroke-linejoin="round"/></g><defs><clipPath id="cclip0_283_951"><path fill="#fff" transform="matrix(0 1 1 0 0 0)" d="M0 0h35.294v24H0z"/></clipPath></defs></svg></svg>