<svg width="75" height="60" viewBox="0 0 75 60" fill="none" xmlns="http://www.w3.org/2000/svg">
<path id="Arrow 1" d="M4 26C1.79086 26 0 27.7909 0 30C0 32.2091 1.79086 34 4 34V26ZM73.8284 32.8284C75.3905 31.2663 75.3905 28.7337 73.8284 27.1716L48.3726 1.71573C46.8105 0.153631 44.2778 0.153631 42.7157 1.71573C41.1536 3.27783 41.1536 5.81049 42.7157 7.37258L65.3431 30L42.7157 52.6274C41.1536 54.1895 41.1536 56.7222 42.7157 58.2843C44.2778 59.8464 46.8105 59.8464 48.3726 58.2843L73.8284 32.8284ZM4 34H71V26H4V34Z" fill="#190251"/>
</svg>
